<svg width="216" height="250" viewBox="0 0 216 250" fill="none" xmlns="http://www.w3.org/2000/svg">
<path d="M108 250L209.846 70.0889C227.583 38.7579 204.861 0 168.757 0H108V250Z" fill="#555754"/>
<path d="M108 0H47.2433C11.1392 0 -11.5827 38.7579 6.15356 70.0889L108 250V0Z" fill="#484D50"/>
<mask id="mask0_41_2163" style="mask-type:alpha" maskUnits="userSpaceOnUse" x="45" y="35" width="126" height="146">
<path d="M48.5896 75.9319L108 181L167.41 75.9319C177.757 57.6346 164.502 35 143.441 35H72.5586C51.4979 35 38.2434 57.6346 48.5896 75.9319Z" fill="#FF0000"/>
</mask>
<g mask="url(#mask0_41_2163)">
<path d="M108 -24C88.0975 -24 68.5749 -18.5508 51.5495 -8.24344C34.524 2.06394 20.6456 16.8361 11.4194 34.4708L108 85V-24Z" fill="#8C6F47"/>
<path d="M108 195C93.0054 195 78.1721 191.906 64.4277 185.912C50.6833 179.918 38.3234 171.153 28.121 160.164C17.9186 149.176 10.0931 136.2 5.13394 122.05C0.174779 107.899 -1.8114 92.8771 -0.700384 77.9237L108 86V195Z" fill="#543908"/>
<path d="M-0.854685 80.3735C0.1153 61.6075 5.92027 43.4109 15.9968 27.5499L108 86L-0.854685 80.3735Z" fill="#68450D"/>
<path d="M108 -24C127.902 -24 147.425 -18.5508 164.451 -8.24344C181.476 2.06394 195.354 16.8361 204.581 34.4708L108 85V-24Z" fill="#CBB691"/>
<path d="M108 195C122.995 195 137.828 191.906 151.572 185.912C165.317 179.918 177.677 171.153 187.879 160.164C198.081 149.176 205.907 136.2 210.866 122.05C215.825 107.899 217.811 92.8771 216.7 77.9237L108 86V195Z" fill="#A5855D"/>
<path d="M216.855 80.3735C215.885 61.6075 210.08 43.4109 200.003 27.5499L108 86L216.855 80.3735Z" fill="#B59670"/>
</g>
<mask id="mask1_41_2163" style="mask-type:alpha" maskUnits="userSpaceOnUse" x="73" y="56" width="68" height="79">
<path d="M75 81L108.051 135L139.099 81C144.527 71.0994 137.694 56 126.645 56H89.4579C78.4089 56 69.5721 71.0994 75 81Z" fill="#0000FF"/>
</mask>
<g mask="url(#mask1_41_2163)">
<path d="M108 -31C134.639 -31 160.356 -21.2444 180.293 -3.57609L108 78V-31Z" fill="#996D19"/>
<path d="M108 187C130.744 187 152.918 179.886 171.416 166.653C189.914 153.421 203.81 134.734 211.157 113.209L108 78V187Z" fill="#785100"/>
<path d="M211.162 113.195C218.298 92.2783 218.907 69.6864 212.908 48.4154C206.91 27.1444 194.587 8.1994 177.574 -5.90729L108 78L211.162 113.195Z" fill="#895B00"/>
<path d="M108 -31C81.5208 -31 55.947 -21.3611 36.0551 -3.88363L108 78V-31Z" fill="#6B4908"/>
<path d="M108 187C85.2562 187 63.0821 179.886 44.5838 166.653C26.0856 153.421 12.1898 134.734 4.84318 113.209L108 78V187Z" fill="#4A3802"/>
<path d="M4.83844 113.195C-2.29763 92.2783 -2.90681 69.6864 3.0917 48.4154C9.09021 27.1444 21.413 8.1994 38.4258 -5.90729L108 78L4.83844 113.195Z" fill="#553D08"/>
</g>
<path d="M52.8936 13.5229C33.1136 16.6871 18 33.8286 18 54.5C18 64.7018 24.637 78.6005 32.7082 88.8557L34.7297 81.3111C28.6299 72.9074 24 62.2332 24 54C24 37.2675 35.5742 23.5552 51.257 19.6306L52.8936 13.5229Z" fill="#73572F"/>
<path d="M161 13C180.78 16.1642 195.894 33.3057 195.894 53.9771C195.894 64.1788 189.257 78.0775 181.185 88.3328L179.164 80.7881C185.264 72.3845 189.894 61.7103 189.894 53.4771C189.894 36.7445 178.319 23.0322 162.637 19.1077L161 13Z" fill="#8C7147"/>
<path d="M188.839 61C187.136 67.6086 183.526 74.7788 179.164 80.7881L181.185 88.3328C187.521 80.2833 192.972 69.9892 195.024 61H188.839Z" fill="#7B5D31"/>
<rect x="173.324" y="94" width="6" height="66.879" transform="rotate(29.8854 173.324 94)" fill="#7B5D31"/>
<rect width="6" height="66.879" transform="matrix(-0.867023 0.498267 0.498267 0.867023 42.2021 94)" fill="#7B5D31"/>
<g filter="url(#filter0_d_41_2163)">
<path d="M19 92H33V109C29.8908 101.892 26.7292 97.4986 19 92Z" fill="#A2A19F"/>
<path d="M47 92H33V109C36.1092 101.892 39.2708 97.4986 47 92Z" fill="#D6D7D6"/>
<path d="M19 92H33V75C29.8908 82.1083 26.7292 86.5014 19 92Z" fill="#BDBEBD"/>
<path d="M47 92H33V75C36.1092 82.1083 39.2708 86.5014 47 92Z" fill="white"/>
</g>
<g filter="url(#filter1_d_41_2163)">
<path d="M75 91H108V131.071C100.671 114.316 93.2187 103.961 75 91Z" fill="#A2A19F"/>
<path d="M141 91H108V131.071C115.329 114.316 122.781 103.961 141 91Z" fill="#D6D7D6"/>
<path d="M75 91H108V50.9286C100.671 67.6839 93.2187 78.0389 75 91Z" fill="#BDBEBD"/>
<path d="M141 91H108V50.9286C115.329 67.6839 122.781 78.0389 141 91Z" fill="white"/>
</g>
<g filter="url(#filter2_d_41_2163)">
<path d="M169 91H183V108C179.891 100.892 176.729 96.4986 169 91Z" fill="#A2A19F"/>
<path d="M197 91H183V108C186.109 100.892 189.271 96.4986 197 91Z" fill="#D6D7D6"/>
<path d="M169 91H183V74C179.891 81.1083 176.729 85.5014 169 91Z" fill="#BDBEBD"/>
<path d="M197 91H183V74C186.109 81.1083 189.271 85.5014 197 91Z" fill="white"/>
</g>
<path d="M73.3652 146L108 207L108 228L63.0001 152.047L73.3652 146Z" fill="#C6C6C6"/>
<path d="M142.484 146L107.85 207L107.85 228L152.85 152.047L142.484 146Z" fill="#E7E8E7"/>
<path d="M47 14L58.3388 10.4566C61.4284 9.49114 64.6466 9 67.8835 9H108V20H68.8027C64.9655 20 61.1596 20.6901 57.5668 22.0375L51 24.5L47 14Z" fill="#C6C6C6"/>
<path d="M169 14L157.661 10.4566C154.572 9.49114 151.353 9 148.116 9H108V20H147.197C151.034 20 154.84 20.6901 158.433 22.0375L165 24.5L169 14Z" fill="#ECEBEC"/>
<defs>
<filter id="filter0_d_41_2163" x="1" y="57" width="64" height="70" filterUnits="userSpaceOnUse" color-interpolation-filters="sRGB">
<feFlood flood-opacity="0" result="BackgroundImageFix"/>
<feColorMatrix in="SourceAlpha" type="matrix" values="0 0 0 0 0 0 0 0 0 0 0 0 0 0 0 0 0 0 127 0" result="hardAlpha"/>
<feOffset/>
<feGaussianBlur stdDeviation="9"/>
<feComposite in2="hardAlpha" operator="out"/>
<feColorMatrix type="matrix" values="0 0 0 0 0 0 0 0 0 0 0 0 0 0 0 0 0 0 0.65 0"/>
<feBlend mode="normal" in2="BackgroundImageFix" result="effect1_dropShadow_41_2163"/>
<feBlend mode="normal" in="SourceGraphic" in2="effect1_dropShadow_41_2163" result="shape"/>
</filter>
<filter id="filter1_d_41_2163" x="57" y="32.9286" width="102" height="116.143" filterUnits="userSpaceOnUse" color-interpolation-filters="sRGB">
<feFlood flood-opacity="0" result="BackgroundImageFix"/>
<feColorMatrix in="SourceAlpha" type="matrix" values="0 0 0 0 0 0 0 0 0 0 0 0 0 0 0 0 0 0 127 0" result="hardAlpha"/>
<feOffset/>
<feGaussianBlur stdDeviation="9"/>
<feComposite in2="hardAlpha" operator="out"/>
<feColorMatrix type="matrix" values="0 0 0 0 0 0 0 0 0 0 0 0 0 0 0 0 0 0 0.65 0"/>
<feBlend mode="normal" in2="BackgroundImageFix" result="effect1_dropShadow_41_2163"/>
<feBlend mode="normal" in="SourceGraphic" in2="effect1_dropShadow_41_2163" result="shape"/>
</filter>
<filter id="filter2_d_41_2163" x="151" y="56" width="64" height="70" filterUnits="userSpaceOnUse" color-interpolation-filters="sRGB">
<feFlood flood-opacity="0" result="BackgroundImageFix"/>
<feColorMatrix in="SourceAlpha" type="matrix" values="0 0 0 0 0 0 0 0 0 0 0 0 0 0 0 0 0 0 127 0" result="hardAlpha"/>
<feOffset/>
<feGaussianBlur stdDeviation="9"/>
<feComposite in2="hardAlpha" operator="out"/>
<feColorMatrix type="matrix" values="0 0 0 0 0 0 0 0 0 0 0 0 0 0 0 0 0 0 0.65 0"/>
<feBlend mode="normal" in2="BackgroundImageFix" result="effect1_dropShadow_41_2163"/>
<feBlend mode="normal" in="SourceGraphic" in2="effect1_dropShadow_41_2163" result="shape"/>
</filter>
</defs>
</svg>
