<svg width="284" height="256" viewBox="0 0 284 256" fill="none" xmlns="http://www.w3.org/2000/svg">
<path d="M142 234C170.113 234 197.074 222.832 216.953 202.953C236.832 183.074 248 156.113 248 128C248 99.8871 236.832 72.9256 216.953 53.0467C197.074 33.1678 170.113 22 142 22L142 128L142 234Z" fill="#565754"/>
<path d="M142 234C113.887 234 86.9255 222.832 67.0467 202.953C47.1678 183.074 36 156.113 36 128C36 99.887 47.1678 72.9255 67.0467 53.0467C86.9255 33.1678 113.887 22 142 22V128L142 234Z" fill="#484D51"/>
<path d="M137.28 236.935C138.812 239.885 140.381 242.905 142 246C143.62 242.903 145.19 239.881 146.723 236.929C171.449 189.317 188.683 159.984 255 128C188.683 96.0158 171.449 66.6834 146.723 19.0712C145.19 16.1194 143.62 13.0973 142 10C140.38 13.0973 138.81 16.1194 137.277 19.0712C112.551 66.6834 95.3174 96.0158 29 128C95.3174 159.984 112.551 189.317 137.277 236.929L137.28 236.935Z" stroke="#8E8E85" stroke-width="9"/>
<mask id="mask0_41_2152" style="mask-type:alpha" maskUnits="userSpaceOnUse" x="18" y="0" width="248" height="256">
<path d="M137.28 236.935C138.812 239.885 140.381 242.905 142 246C143.62 242.903 145.19 239.881 146.723 236.929C171.449 189.317 188.683 159.984 255 128C188.683 96.0158 171.449 66.6834 146.723 19.0712C145.19 16.1194 143.62 13.0973 142 10C140.38 13.0973 138.81 16.1194 137.277 19.0712C112.551 66.6834 95.3174 96.0158 29 128C95.3174 159.984 112.551 189.317 137.277 236.929L137.28 236.935Z" stroke="#C2BFB9" stroke-width="9"/>
</mask>
<g mask="url(#mask0_41_2152)">
<path d="M96 61L142 92V61V-5H96V61Z" fill="#C2BFB9"/>
</g>
<mask id="mask1_41_2152" style="mask-type:alpha" maskUnits="userSpaceOnUse" x="18" y="0" width="248" height="256">
<path d="M137.28 236.935C138.812 239.885 140.381 242.905 142 246C143.62 242.903 145.19 239.881 146.723 236.929C171.449 189.317 188.683 159.984 255 128C188.683 96.0158 171.449 66.6834 146.723 19.0712C145.19 16.1194 143.62 13.0973 142 10C140.38 13.0973 138.81 16.1194 137.277 19.0712C112.551 66.6834 95.3174 96.0158 29 128C95.3174 159.984 112.551 189.317 137.277 236.929L137.28 236.935Z" stroke="#E8E5DF" stroke-width="9"/>
</mask>
<g mask="url(#mask1_41_2152)">
<path d="M188 61L142 92V61V-5H188V61Z" fill="#E8E5DF"/>
</g>
<mask id="mask2_41_2152" style="mask-type:alpha" maskUnits="userSpaceOnUse" x="18" y="0" width="248" height="256">
<path d="M137.28 236.935C138.812 239.885 140.381 242.905 142 246C143.62 242.903 145.19 239.881 146.723 236.929C171.449 189.317 188.683 159.984 255 128C188.683 96.0158 171.449 66.6834 146.723 19.0712C145.19 16.1194 143.62 13.0973 142 10C140.38 13.0973 138.81 16.1194 137.277 19.0712C112.551 66.6834 95.3174 96.0158 29 128C95.3174 159.984 112.551 189.317 137.277 236.929L137.28 236.935Z" stroke="black" stroke-width="9"/>
</mask>
<g mask="url(#mask2_41_2152)">
<path d="M96 196L142 165V196V262H96V196Z" fill="#C2BFB9"/>
</g>
<mask id="mask3_41_2152" style="mask-type:alpha" maskUnits="userSpaceOnUse" x="18" y="0" width="248" height="256">
<path d="M137.28 236.935C138.812 239.885 140.381 242.905 142 246C143.62 242.903 145.19 239.881 146.723 236.929C171.449 189.317 188.683 159.984 255 128C188.683 96.0158 171.449 66.6834 146.723 19.0712C145.19 16.1194 143.62 13.0973 142 10C140.38 13.0973 138.81 16.1194 137.277 19.0712C112.551 66.6834 95.3174 96.0158 29 128C95.3174 159.984 112.551 189.317 137.277 236.929L137.28 236.935Z" stroke="#8E8E85" stroke-width="9"/>
</mask>
<g mask="url(#mask3_41_2152)">
<path d="M188 196L142 165V196V262H188V196Z" fill="#E8E5DF"/>
</g>
<rect x="68.9944" y="54.4657" width="5" height="4.99616" transform="rotate(-46.3048 68.9944 54.4657)" fill="white"/>
<rect x="81.9321" y="66.8273" width="5" height="44.1061" transform="rotate(-46.3048 81.9321 66.8273)" fill="white"/>
<rect width="5" height="43.7825" transform="matrix(-0.70092 -0.71324 -0.71324 0.70092 201.732 66.7528)" fill="white"/>
<rect width="5.00313" height="5" transform="matrix(-0.70092 -0.71324 -0.71324 0.70092 214.45 54.251)" fill="white"/>
<rect width="5" height="42.6192" transform="matrix(-0.70092 -0.71324 -0.71324 0.70092 116.133 162.566)" fill="white"/>
<rect x="72.8196" y="205.131" width="5" height="5.0046" transform="rotate(-134.501 72.8196 205.131)" fill="white"/>
<rect x="167" y="162.615" width="5" height="43.5148" transform="rotate(-46.3048 167 162.615)" fill="white"/>
<rect width="5" height="5.00435" transform="matrix(0.690821 -0.723026 -0.723026 -0.690821 211.232 204.877)" fill="white"/>
<mask id="mask4_41_2152" style="mask-type:alpha" maskUnits="userSpaceOnUse" x="52" y="38" width="180" height="180">
<path d="M138.173 211.086C139.415 213.336 140.687 215.639 142 218C143.314 215.638 144.586 213.333 145.829 211.081C165.878 174.767 178.229 152.395 232 128C178.229 103.605 165.878 81.2331 145.829 44.9187C144.586 42.6673 143.314 40.3624 142 38C140.686 40.3624 139.414 42.6673 138.171 44.9187C118.122 81.2331 105.771 103.605 52 128C105.771 152.395 118.122 174.767 138.171 211.081L138.173 211.086Z" fill="#D9D9D9"/>
</mask>
<g mask="url(#mask4_41_2152)">
<path d="M232 128C232 116.181 229.672 104.478 225.149 93.5585C220.626 82.6392 213.997 72.7177 205.64 64.3604C197.282 56.0031 187.361 49.3738 176.442 44.8508C165.522 40.3279 153.819 38 142 38L142 128H232Z" fill="#E3796E"/>
<path d="M232 128C232 109.867 226.523 92.1571 216.286 77.1902C206.049 62.2234 191.53 50.6978 174.63 44.1235L142 128H232Z" fill="#F3C4AE"/>
<path d="M232 128C232 119.713 230.856 111.467 228.599 103.493L142 128H232Z" fill="#E3746A"/>
<path d="M232 128C232 139.819 229.672 151.522 225.149 162.442C220.626 173.361 213.997 183.282 205.64 191.64C197.282 199.997 187.361 206.626 176.442 211.149C165.522 215.672 153.819 218 142 218L142 128H232Z" fill="#BB3E66"/>
<path d="M232 128C232 146.336 226.399 164.235 215.948 179.301C205.496 194.366 190.692 205.88 173.517 212.301L142 128H232Z" fill="#AD3671"/>
<path d="M232 128C232 138.1 230.3 148.129 226.971 157.664L142 128H232Z" fill="#BA416C"/>
<path d="M52 128C52 116.181 54.3279 104.478 58.8508 93.5585C63.3738 82.6392 70.0031 72.7177 78.3604 64.3604C86.7177 56.0031 96.6392 49.3738 107.558 44.8508C118.478 40.3279 130.181 38 142 38L142 128H52Z" fill="#B02639"/>
<path d="M52 128C52 109.867 57.4773 92.1571 67.7143 77.1902C77.9513 62.2234 92.4705 50.6978 109.37 44.1235L142 128H52Z" fill="#BF334C"/>
<path d="M52 128C52 119.713 53.1444 111.467 55.4008 103.493L142 128H52Z" fill="#B02639"/>
<path d="M52 128C52 139.819 54.3279 151.522 58.8508 162.442C63.3738 173.361 70.0031 183.282 78.3604 191.64C86.7177 199.997 96.6392 206.626 107.558 211.149C118.478 215.672 130.181 218 142 218L142 128H52Z" fill="#9E1F42"/>
<path d="M52 128C52 146.336 57.6006 164.235 68.0523 179.301C78.504 194.366 93.3081 205.88 110.483 212.301L142 128H52Z" fill="#8B1940"/>
<path d="M52 128C52 138.1 53.7002 148.129 57.0293 157.664L142 128H52Z" fill="#9C1F43"/>
</g>
<mask id="mask5_41_2152" style="mask-type:alpha" maskUnits="userSpaceOnUse" x="88" y="62" width="108" height="132">
<path d="M139.704 188.93C140.449 190.58 141.212 192.269 142 194C142.788 192.268 143.552 190.577 144.298 188.926C156.327 162.296 163.737 145.889 196 128C163.737 110.111 156.327 93.7043 144.298 67.0737C143.552 65.4227 142.788 63.7324 142 62C141.212 63.7324 140.448 65.4227 139.702 67.0737C127.673 93.7043 120.263 110.111 88 128C120.263 145.889 127.673 162.296 139.702 188.926L139.704 188.93Z" fill="#D9D9D9"/>
</mask>
<g mask="url(#mask5_41_2152)">
<path d="M210 128C210 119.07 208.241 110.228 204.824 101.978C201.406 93.7274 196.398 86.2311 190.083 79.9167C183.769 73.6024 176.273 68.5935 168.022 65.1762C159.772 61.7589 150.93 60 142 60V128H210Z" fill="#974A7F"/>
<path d="M210 128C210 114.3 205.862 100.919 198.127 89.6104C190.392 78.3021 179.422 69.5939 166.654 64.6267L142 128H210Z" fill="#C26CB0"/>
<path d="M210 128C210 121.739 209.135 115.508 207.43 109.484L142 128H210Z" fill="#9B4B84"/>
<path d="M210 128C210 136.93 208.241 145.772 204.824 154.022C201.406 162.273 196.398 169.769 190.083 176.083C183.769 182.398 176.273 187.406 168.022 190.824C159.772 194.241 150.93 196 142 196V128H210Z" fill="#7B3767"/>
<path d="M210 128C210 141.854 205.768 155.377 197.872 166.76C189.975 178.143 178.789 186.843 165.813 191.694L142 128H210Z" fill="#873E72"/>
<path d="M210 128C210 135.631 208.715 143.208 206.2 150.413L142 128H210Z" fill="#863D72"/>
<path d="M74 128C74 119.07 75.7589 110.228 79.1762 101.978C82.5935 93.7274 87.6024 86.2311 93.9167 79.9167C100.231 73.6024 107.727 68.5935 115.978 65.1762C124.228 61.7589 133.07 60 142 60V128H74Z" fill="#723565"/>
<path d="M74 128C74 114.3 78.1384 100.919 85.873 89.6104C93.6076 78.3021 104.578 69.5939 117.346 64.6267L142 128H74Z" fill="#843B71"/>
<path d="M74 128C74 121.739 74.8647 115.508 76.5695 109.484L142 128H74Z" fill="#723565"/>
<path d="M74 128C74 136.93 75.7589 145.772 79.1762 154.022C82.5935 162.273 87.6024 169.769 93.9167 176.083C100.231 182.398 107.727 187.406 115.978 190.824C124.228 194.241 133.07 196 142 196V128H74Z" fill="#5C2B52"/>
<path d="M74 128C74 141.854 78.2316 155.377 86.1284 166.76C94.0253 178.143 105.211 186.843 118.187 191.694L142 128H74Z" fill="#6D295D"/>
<path d="M74 128C74 135.631 75.2846 143.208 77.7999 150.413L142 128H74Z" fill="#5C2B52"/>
</g>
<g filter="url(#filter0_d_41_2152)">
<path d="M18 128H32V145C28.8908 137.892 25.7292 133.499 18 128Z" fill="#A2A19F"/>
<path d="M46 128H32V145C35.1092 137.892 38.2708 133.499 46 128Z" fill="#D6D7D6"/>
<path d="M18 128H32V111C28.8908 118.108 25.7292 122.501 18 128Z" fill="#BDBEBD"/>
<path d="M46 128H32V111C35.1092 118.108 38.2708 122.501 46 128Z" fill="white"/>
</g>
<g filter="url(#filter1_d_41_2152)">
<path d="M238 128H252V145C248.891 137.892 245.729 133.499 238 128Z" fill="#A2A19F"/>
<path d="M266 128H252V145C255.109 137.892 258.271 133.499 266 128Z" fill="#D6D7D6"/>
<path d="M238 128H252V111C248.891 118.108 245.729 122.501 238 128Z" fill="#BDBEBD"/>
<path d="M266 128H252V111C255.109 118.108 258.271 122.501 266 128Z" fill="white"/>
</g>
<g filter="url(#filter2_d_41_2152)">
<path d="M109 128.071H142V168.143C134.671 151.387 127.219 141.032 109 128.071Z" fill="#A2A19F"/>
<path d="M175 128.071H142V168.143C149.329 151.387 156.781 141.032 175 128.071Z" fill="#D6D7D6"/>
<path d="M109 128.071H142V88C134.671 104.755 127.219 115.11 109 128.071Z" fill="#BDBEBD"/>
<path d="M175 128.071H142V88C149.329 104.755 156.781 115.11 175 128.071Z" fill="white"/>
</g>
<defs>
<filter id="filter0_d_41_2152" x="0" y="93" width="64" height="70" filterUnits="userSpaceOnUse" color-interpolation-filters="sRGB">
<feFlood flood-opacity="0" result="BackgroundImageFix"/>
<feColorMatrix in="SourceAlpha" type="matrix" values="0 0 0 0 0 0 0 0 0 0 0 0 0 0 0 0 0 0 127 0" result="hardAlpha"/>
<feOffset/>
<feGaussianBlur stdDeviation="9"/>
<feComposite in2="hardAlpha" operator="out"/>
<feColorMatrix type="matrix" values="0 0 0 0 0 0 0 0 0 0 0 0 0 0 0 0 0 0 0.65 0"/>
<feBlend mode="normal" in2="BackgroundImageFix" result="effect1_dropShadow_41_2152"/>
<feBlend mode="normal" in="SourceGraphic" in2="effect1_dropShadow_41_2152" result="shape"/>
</filter>
<filter id="filter1_d_41_2152" x="220" y="93" width="64" height="70" filterUnits="userSpaceOnUse" color-interpolation-filters="sRGB">
<feFlood flood-opacity="0" result="BackgroundImageFix"/>
<feColorMatrix in="SourceAlpha" type="matrix" values="0 0 0 0 0 0 0 0 0 0 0 0 0 0 0 0 0 0 127 0" result="hardAlpha"/>
<feOffset/>
<feGaussianBlur stdDeviation="9"/>
<feComposite in2="hardAlpha" operator="out"/>
<feColorMatrix type="matrix" values="0 0 0 0 0 0 0 0 0 0 0 0 0 0 0 0 0 0 0.65 0"/>
<feBlend mode="normal" in2="BackgroundImageFix" result="effect1_dropShadow_41_2152"/>
<feBlend mode="normal" in="SourceGraphic" in2="effect1_dropShadow_41_2152" result="shape"/>
</filter>
<filter id="filter2_d_41_2152" x="91" y="70" width="102" height="116.143" filterUnits="userSpaceOnUse" color-interpolation-filters="sRGB">
<feFlood flood-opacity="0" result="BackgroundImageFix"/>
<feColorMatrix in="SourceAlpha" type="matrix" values="0 0 0 0 0 0 0 0 0 0 0 0 0 0 0 0 0 0 127 0" result="hardAlpha"/>
<feOffset/>
<feGaussianBlur stdDeviation="9"/>
<feComposite in2="hardAlpha" operator="out"/>
<feColorMatrix type="matrix" values="0 0 0 0 0 0 0 0 0 0 0 0 0 0 0 0 0 0 0.65 0"/>
<feBlend mode="normal" in2="BackgroundImageFix" result="effect1_dropShadow_41_2152"/>
<feBlend mode="normal" in="SourceGraphic" in2="effect1_dropShadow_41_2152" result="shape"/>
</filter>
</defs>
</svg>
