<svg width="220" height="250" viewBox="0 0 220 250" fill="none" xmlns="http://www.w3.org/2000/svg">
<path d="M110 0C161.915 0 204 42.0852 204 94V156C204 207.915 161.915 250 110 250V0Z" fill="#555754"/>
<path d="M110 0C58.0852 0 16 42.0852 16 94V156C16 207.915 58.0852 250 110 250V0Z" fill="#484D50"/>
<mask id="mask0_41_2167" style="mask-type:alpha" maskUnits="userSpaceOnUse" x="50" y="44" width="120" height="162">
<rect x="50" y="44" width="120" height="162" rx="60" fill="#5D5D5D"/>
</mask>
<g mask="url(#mask0_41_2167)">
<path d="M110 44C101.77 44 93.5874 45.2544 85.7351 47.7199L110 125V44Z" fill="#363536"/>
<path d="M110 206C101.77 206 93.5874 204.746 85.7351 202.28L110 125V206Z" fill="#333233"/>
<path d="M85.7578 47.7128C73.5859 51.5307 62.4877 58.1695 53.3672 67.0886C44.2468 76.0077 37.3618 86.9549 33.2732 99.0386L110 125L85.7578 47.7128Z" fill="#393839"/>
<path d="M85.7578 202.287C73.5859 198.469 62.4877 191.831 53.3672 182.911C44.2468 173.992 37.3618 163.045 33.2732 150.961L110 125L85.7578 202.287Z" fill="#2E2E2E"/>
<path d="M33.2811 99.0153C30.4432 107.394 28.9971 116.181 29 125.027L110 125L33.2811 99.0153Z" fill="#313031"/>
<path d="M33.2811 150.985C30.4432 142.606 28.9971 133.819 29 124.973L110 125L33.2811 150.985Z" fill="#313031"/>
<path d="M110 44C118.23 44 126.413 45.2544 134.265 47.7199L110 125V44Z" fill="#5D5B5D"/>
<path d="M110 206C118.23 206 126.413 204.746 134.265 202.28L110 125V206Z" fill="#424342"/>
<path d="M134.242 47.7128C146.414 51.5307 157.512 58.1695 166.633 67.0886C175.753 76.0077 182.638 86.9549 186.727 99.0386L110 125L134.242 47.7128Z" fill="#4F4F4F"/>
<path d="M134.242 202.287C146.414 198.469 157.512 191.831 166.633 182.911C175.753 173.992 182.638 163.045 186.727 150.961L110 125L134.242 202.287Z" fill="#3F3C3F"/>
<path d="M186.719 99.0153C189.557 107.394 191.003 116.181 191 125.027L110 125L186.719 99.0153Z" fill="#474747"/>
<path d="M186.719 150.985C189.557 142.606 191.003 133.819 191 124.973L110 125L186.719 150.985Z" fill="#3F403F"/>
</g>
<rect x="75" y="81" width="70" height="88" rx="35" fill="#C5C3C5"/>
<mask id="mask1_41_2167" style="mask-type:alpha" maskUnits="userSpaceOnUse" x="75" y="81" width="70" height="88">
<path d="M75 116C75 96.67 90.67 81 110 81C129.33 81 145 96.67 145 116V134C145 153.33 129.33 169 110 169C90.67 169 75 153.33 75 134V116Z" fill="#C5C3C5"/>
</mask>
<g mask="url(#mask1_41_2167)">
<path d="M110 81C105.529 81 101.085 81.6814 96.8191 83.0207L110 125V81Z" fill="#656665"/>
<path d="M110 169C105.529 169 101.085 168.319 96.8191 166.979L110 125V169Z" fill="#5A5B5D"/>
<path d="M96.8314 83.0168C90.2195 85.0907 84.1909 88.697 79.2365 93.542C74.2822 98.3869 70.5422 104.334 68.3212 110.898L110 125L96.8314 83.0168Z" fill="#6B6C6D"/>
<path d="M96.8314 166.983C90.2195 164.909 84.1909 161.303 79.2365 156.458C74.2822 151.613 70.5422 145.666 68.3212 139.102L110 125L96.8314 166.983Z" fill="#545654"/>
<path d="M68.3255 110.885C66.784 115.436 65.9984 120.209 66 125.015L110 125L68.3255 110.885Z" fill="#656668"/>
<path d="M68.3255 139.115C66.784 134.564 65.9984 129.791 66 124.985L110 125L68.3255 139.115Z" fill="#5A5A5D"/>
<path d="M110 81C114.471 81 118.915 81.6814 123.181 83.0207L110 125V81Z" fill="#C3C3C6"/>
<path d="M110 169C114.471 169 118.915 168.319 123.181 166.979L110 125V169Z" fill="#6A6A6A"/>
<path d="M123.169 83.0168C129.781 85.0907 135.809 88.697 140.763 93.542C145.718 98.3869 149.458 104.334 151.679 110.898L110 125L123.169 83.0168Z" fill="#949394"/>
<path d="M123.169 166.983C129.781 164.909 135.809 161.303 140.763 156.458C145.718 151.613 149.458 145.666 151.679 139.102L110 125L123.169 166.983Z" fill="#636463"/>
<path d="M151.674 110.885C153.216 115.436 154.002 120.209 154 125.015L110 125L151.674 110.885Z" fill="#79797A"/>
<path d="M151.674 139.115C153.216 134.564 154.002 129.791 154 124.985L110 125L151.674 139.115Z" fill="#6A6A6A"/>
</g>
<path fill-rule="evenodd" clip-rule="evenodd" d="M35 133H29V150C29 194.735 65.2649 231 110 231C154.735 231 191 194.735 191 150V133H185V149C185 190.421 151.421 224 110 224C68.5786 224 35 190.421 35 149V133Z" fill="#7B797B"/>
<path fill-rule="evenodd" clip-rule="evenodd" d="M35 114H29V97C29 52.2649 65.2649 16 110 16C154.735 16 191 52.2649 191 97V114H185V98C185 56.5786 151.421 23 110 23C68.5786 23 35 56.5786 35 98V114Z" fill="#7B797B"/>
<g filter="url(#filter0_d_41_2167)">
<path d="M18 125H32V142C28.8908 134.892 25.7292 130.499 18 125Z" fill="#A2A19F"/>
<path d="M46 125H32V142C35.1092 134.892 38.2708 130.499 46 125Z" fill="#D6D7D6"/>
<path d="M18 125H32V108C28.8908 115.108 25.7292 119.501 18 125Z" fill="#BDBEBD"/>
<path d="M46 125H32V108C35.1092 115.108 38.2708 119.501 46 125Z" fill="white"/>
</g>
<g filter="url(#filter1_d_41_2167)">
<path d="M174 125H188V142C184.891 134.892 181.729 130.499 174 125Z" fill="#A2A19F"/>
<path d="M202 125H188V142C191.109 134.892 194.271 130.499 202 125Z" fill="#D6D7D6"/>
<path d="M174 125H188V108C184.891 115.108 181.729 119.501 174 125Z" fill="#BDBEBD"/>
<path d="M202 125H188V108C191.109 115.108 194.271 119.501 202 125Z" fill="white"/>
</g>
<g filter="url(#filter2_d_41_2167)">
<path d="M77 125H110V165.071C102.671 148.316 95.2187 137.961 77 125Z" fill="#A2A19F"/>
<path d="M143 125H110V165.071C117.329 148.316 124.781 137.961 143 125Z" fill="#D6D7D6"/>
<path d="M77 125H110V84.9286C102.671 101.684 95.2187 112.039 77 125Z" fill="#BDBEBD"/>
<path d="M143 125H110V84.9286C117.329 101.684 124.781 112.039 143 125Z" fill="white"/>
</g>
<path fill-rule="evenodd" clip-rule="evenodd" d="M110 27.0065V14.0129C130.285 14.3632 148.869 21.6964 163.45 33.7117L155.646 43.0123C143.016 33.1722 127.197 27.2334 110 27.0065Z" fill="#E7E7E7"/>
<path fill-rule="evenodd" clip-rule="evenodd" d="M110 27.0067C109.66 27.0023 109.319 27 108.977 27C90.8737 27 74.2489 33.3296 61.1947 43.8965L53 34.1304C68.0175 21.5642 87.3639 14 108.477 14C108.986 14 109.493 14.0044 110 14.0131V27.0067Z" fill="#AFAFAF"/>
<path d="M110 233.683V220.679C127.137 220.493 142.848 214.36 155.166 204.247L163.506 214.186C149.004 226.298 130.355 233.61 110 233.683Z" fill="#E7E7E7"/>
<path d="M110 220.679V233.683C109.898 233.683 109.796 233.684 109.693 233.684C88.8041 233.684 69.6959 226.059 55 213.44L62.9214 204C75.4761 214.419 91.6031 220.684 109.193 220.684C109.463 220.684 109.731 220.682 110 220.679Z" fill="#AFAFAF"/>
<defs>
<filter id="filter0_d_41_2167" x="0" y="90" width="64" height="70" filterUnits="userSpaceOnUse" color-interpolation-filters="sRGB">
<feFlood flood-opacity="0" result="BackgroundImageFix"/>
<feColorMatrix in="SourceAlpha" type="matrix" values="0 0 0 0 0 0 0 0 0 0 0 0 0 0 0 0 0 0 127 0" result="hardAlpha"/>
<feOffset/>
<feGaussianBlur stdDeviation="9"/>
<feComposite in2="hardAlpha" operator="out"/>
<feColorMatrix type="matrix" values="0 0 0 0 0 0 0 0 0 0 0 0 0 0 0 0 0 0 0.65 0"/>
<feBlend mode="normal" in2="BackgroundImageFix" result="effect1_dropShadow_41_2167"/>
<feBlend mode="normal" in="SourceGraphic" in2="effect1_dropShadow_41_2167" result="shape"/>
</filter>
<filter id="filter1_d_41_2167" x="156" y="90" width="64" height="70" filterUnits="userSpaceOnUse" color-interpolation-filters="sRGB">
<feFlood flood-opacity="0" result="BackgroundImageFix"/>
<feColorMatrix in="SourceAlpha" type="matrix" values="0 0 0 0 0 0 0 0 0 0 0 0 0 0 0 0 0 0 127 0" result="hardAlpha"/>
<feOffset/>
<feGaussianBlur stdDeviation="9"/>
<feComposite in2="hardAlpha" operator="out"/>
<feColorMatrix type="matrix" values="0 0 0 0 0 0 0 0 0 0 0 0 0 0 0 0 0 0 0.65 0"/>
<feBlend mode="normal" in2="BackgroundImageFix" result="effect1_dropShadow_41_2167"/>
<feBlend mode="normal" in="SourceGraphic" in2="effect1_dropShadow_41_2167" result="shape"/>
</filter>
<filter id="filter2_d_41_2167" x="59" y="66.9286" width="102" height="116.143" filterUnits="userSpaceOnUse" color-interpolation-filters="sRGB">
<feFlood flood-opacity="0" result="BackgroundImageFix"/>
<feColorMatrix in="SourceAlpha" type="matrix" values="0 0 0 0 0 0 0 0 0 0 0 0 0 0 0 0 0 0 127 0" result="hardAlpha"/>
<feOffset/>
<feGaussianBlur stdDeviation="9"/>
<feComposite in2="hardAlpha" operator="out"/>
<feColorMatrix type="matrix" values="0 0 0 0 0 0 0 0 0 0 0 0 0 0 0 0 0 0 0.65 0"/>
<feBlend mode="normal" in2="BackgroundImageFix" result="effect1_dropShadow_41_2167"/>
<feBlend mode="normal" in="SourceGraphic" in2="effect1_dropShadow_41_2167" result="shape"/>
</filter>
</defs>
</svg>
