<svg width="258" height="246" viewBox="0 0 258 246" fill="none" xmlns="http://www.w3.org/2000/svg">
<path d="M129 0H125.968C97.0787 0 70.3763 15.3862 55.889 40.3802L8 123L55.889 205.62C70.3763 230.614 97.0787 246 125.968 246H129V0Z" fill="#484D50"/>
<path d="M129 0H132.032C160.921 0 187.624 15.3862 202.111 40.3802L250 123L202.111 205.62C187.624 230.614 160.921 246 132.032 246H129V0Z" fill="#555654"/>
<path d="M32 123.824L69.0206 51.8853C77.3805 37.7008 92.5803 29 109 29H145.797C162.217 29 177.416 37.7008 185.776 51.8853L226 123.824L182.108 198.298C173.748 212.482 158.548 221.183 142.128 221.183H113C96.5803 221.183 81.4912 214.299 73.1313 200.115L32 123.824Z" stroke="url(#paint0_linear_41_2151)" stroke-width="6"/>
<mask id="mask0_41_2151" style="mask-type:alpha" maskUnits="userSpaceOnUse" x="58" y="52" width="142" height="142">
<path d="M58 123L90.1274 68.6893C96.2465 58.3451 107.372 52 119.391 52H138.609C150.628 52 161.753 58.3451 167.873 68.6893L200 123L167.873 177.311C161.753 187.655 150.628 194 138.609 194H119.391C107.372 194 96.2465 187.655 90.1274 177.311L58 123Z" fill="#286C7B"/>
</mask>
<g mask="url(#mask0_41_2151)">
<path d="M205 123C205 132.98 203.034 142.863 199.215 152.084C195.395 161.305 189.797 169.683 182.74 176.74C175.683 183.797 167.305 189.395 158.084 193.215C148.863 197.034 138.98 199 129 199V123H205Z" fill="#3CA6B5"/>
<path d="M205 123C205 113.02 203.034 103.137 199.215 93.9161C195.395 84.6953 189.797 76.3171 182.74 69.2599C175.683 62.2026 167.305 56.6045 158.084 52.7852C148.863 48.9658 138.98 47 129 47V123H205Z" fill="#42AFC0"/>
<path d="M205 123C205 105.47 198.94 88.4795 187.847 74.9062C176.754 61.3329 161.31 52.0116 144.131 48.5215L129 123H205Z" fill="#52D3DE"/>
<path d="M205 123C205 110.754 202.041 98.6902 196.375 87.8344C190.709 76.9785 182.503 67.6526 172.457 60.6505L129 123H205Z" fill="#42B3C3"/>
<path d="M205 123C205 112.148 202.676 101.423 198.185 91.5443C193.693 81.6659 187.139 72.8638 178.962 65.7301L129 123H205Z" fill="#3697A7"/>
<path d="M205 123C205 133.989 202.617 144.847 198.015 154.826C193.413 164.805 186.702 173.668 178.345 180.802L129 123H205Z" fill="#39A0B2"/>
<rect x="130" y="122" width="72.4768" height="2.01325" fill="#42AEBD"/>
<path d="M53 123C53 132.98 54.9658 142.863 58.7852 152.084C62.6045 161.305 68.2026 169.683 75.2599 176.74C82.3171 183.797 90.6953 189.395 99.9161 193.215C109.137 197.034 119.02 199 129 199V123H53Z" fill="#2E7D8C"/>
<path d="M53 123C53 113.02 54.9658 103.137 58.7852 93.9161C62.6045 84.6953 68.2026 76.3171 75.2599 69.2599C82.3171 62.2026 90.6953 56.6045 99.9161 52.7852C109.137 48.9658 119.02 47 129 47V123H53Z" fill="#2E7D8C"/>
<path d="M53 123C53 105.47 59.0598 88.4795 70.1529 74.9062C81.2459 61.3329 96.69 52.0116 113.869 48.5215L129 123H53Z" fill="#318E9C"/>
<path d="M53 123C53 110.754 55.959 98.6902 61.6251 87.8344C67.2912 76.9785 75.4966 67.6526 85.5427 60.6505L129 123H53Z" fill="#2B7D8C"/>
<path d="M53 123C53 112.148 55.3238 101.423 59.8152 91.5443C64.3065 81.6659 70.8612 72.8638 79.0384 65.7301L129 123H53Z" fill="#286C7B"/>
<path d="M53 123C53 133.989 55.383 144.847 59.9848 154.826C64.5867 164.805 71.2977 173.668 79.6555 180.802L129 123H53Z" fill="#297184"/>
<rect width="72.4768" height="2.01325" transform="matrix(-1 0 0 1 126.477 122)" fill="#297D8C"/>
</g>
<path d="M129 81H127.973C118.184 81 109.136 86.2538 104.227 94.7884L88 123L104.227 151.212C109.136 159.746 118.184 165 127.973 165H129V81Z" fill="#29525A"/>
<path d="M129 81H130.027C139.816 81 148.864 86.2538 153.773 94.7884L170 123L153.773 151.212C148.864 159.746 139.816 165 130.027 165H129V81Z" fill="#3C717B"/>
<g filter="url(#filter0_d_41_2151)">
<path d="M18 123H32V140C28.8908 132.892 25.7292 128.499 18 123Z" fill="#A2A19F"/>
<path d="M46 123H32V140C35.1092 132.892 38.2708 128.499 46 123Z" fill="#D6D7D6"/>
<path d="M18 123H32V106C28.8908 113.108 25.7292 117.501 18 123Z" fill="#BDBEBD"/>
<path d="M46 123H32V106C35.1092 113.108 38.2708 117.501 46 123Z" fill="white"/>
</g>
<g filter="url(#filter1_d_41_2151)">
<path d="M212 123H226V140C222.891 132.892 219.729 128.499 212 123Z" fill="#A2A19F"/>
<path d="M240 123H226V140C229.109 132.892 232.271 128.499 240 123Z" fill="#D6D7D6"/>
<path d="M212 123H226V106C222.891 113.108 219.729 117.501 212 123Z" fill="#BDBEBD"/>
<path d="M240 123H226V106C229.109 113.108 232.271 117.501 240 123Z" fill="white"/>
</g>
<g filter="url(#filter2_d_41_2151)">
<path d="M96 123.071H129V163.143C121.671 146.387 114.219 136.032 96 123.071Z" fill="#A2A19F"/>
<path d="M162 123.071H129V163.143C136.329 146.387 143.781 136.032 162 123.071Z" fill="#D6D7D6"/>
<path d="M96 123.071H129V83C121.671 99.7554 114.219 110.11 96 123.071Z" fill="#BDBEBD"/>
<path d="M162 123.071H129V83C136.329 99.7554 143.781 110.11 162 123.071Z" fill="white"/>
</g>
<path d="M96.8222 24H129V36H97.1242C90.8116 36 84.9293 39.2001 81.5 44.5L71 38L75.9467 32.8701C81.4124 27.2019 88.9481 24 96.8222 24Z" fill="#A1B6BB"/>
<path d="M157.178 24H129V36H156.876C163.188 36 169.071 39.2001 172.5 44.5L183 38L178.053 32.8701C172.588 27.2019 165.052 24 157.178 24Z" fill="#C0D8D6"/>
<path d="M96.8222 224.5H129V212.5H97.1242C90.8116 212.5 84.9293 209.3 81.5 204L71 210.5L75.9467 215.63C81.4124 221.298 88.9481 224.5 96.8222 224.5Z" fill="#A1B6BB"/>
<path d="M157.178 224.5H129V212.5H156.876C163.188 212.5 169.071 209.3 172.5 204L183 210.5L178.053 215.63C172.588 221.298 165.052 224.5 157.178 224.5Z" fill="#C0D8D6"/>
<defs>
<filter id="filter0_d_41_2151" x="0" y="88" width="64" height="70" filterUnits="userSpaceOnUse" color-interpolation-filters="sRGB">
<feFlood flood-opacity="0" result="BackgroundImageFix"/>
<feColorMatrix in="SourceAlpha" type="matrix" values="0 0 0 0 0 0 0 0 0 0 0 0 0 0 0 0 0 0 127 0" result="hardAlpha"/>
<feOffset/>
<feGaussianBlur stdDeviation="9"/>
<feComposite in2="hardAlpha" operator="out"/>
<feColorMatrix type="matrix" values="0 0 0 0 0 0 0 0 0 0 0 0 0 0 0 0 0 0 0.65 0"/>
<feBlend mode="normal" in2="BackgroundImageFix" result="effect1_dropShadow_41_2151"/>
<feBlend mode="normal" in="SourceGraphic" in2="effect1_dropShadow_41_2151" result="shape"/>
</filter>
<filter id="filter1_d_41_2151" x="194" y="88" width="64" height="70" filterUnits="userSpaceOnUse" color-interpolation-filters="sRGB">
<feFlood flood-opacity="0" result="BackgroundImageFix"/>
<feColorMatrix in="SourceAlpha" type="matrix" values="0 0 0 0 0 0 0 0 0 0 0 0 0 0 0 0 0 0 127 0" result="hardAlpha"/>
<feOffset/>
<feGaussianBlur stdDeviation="9"/>
<feComposite in2="hardAlpha" operator="out"/>
<feColorMatrix type="matrix" values="0 0 0 0 0 0 0 0 0 0 0 0 0 0 0 0 0 0 0.65 0"/>
<feBlend mode="normal" in2="BackgroundImageFix" result="effect1_dropShadow_41_2151"/>
<feBlend mode="normal" in="SourceGraphic" in2="effect1_dropShadow_41_2151" result="shape"/>
</filter>
<filter id="filter2_d_41_2151" x="78" y="65" width="102" height="116.143" filterUnits="userSpaceOnUse" color-interpolation-filters="sRGB">
<feFlood flood-opacity="0" result="BackgroundImageFix"/>
<feColorMatrix in="SourceAlpha" type="matrix" values="0 0 0 0 0 0 0 0 0 0 0 0 0 0 0 0 0 0 127 0" result="hardAlpha"/>
<feOffset/>
<feGaussianBlur stdDeviation="9"/>
<feComposite in2="hardAlpha" operator="out"/>
<feColorMatrix type="matrix" values="0 0 0 0 0 0 0 0 0 0 0 0 0 0 0 0 0 0 0.65 0"/>
<feBlend mode="normal" in2="BackgroundImageFix" result="effect1_dropShadow_41_2151"/>
<feBlend mode="normal" in="SourceGraphic" in2="effect1_dropShadow_41_2151" result="shape"/>
</filter>
<linearGradient id="paint0_linear_41_2151" x1="32" y1="125.091" x2="226" y2="125.091" gradientUnits="userSpaceOnUse">
<stop stop-color="#39717B"/>
<stop offset="1" stop-color="#428894"/>
</linearGradient>
</defs>
</svg>
